<svg idth="102" height="22" viewBox="0 0 294 30" fill="none" xmlns="http://www.w3.org/2000/svg">
<path d="M13.4609 21.6523L18.8418 1.98438H26.1152L17.0234 29H9.89844L0.880859 1.98438H8.09863L13.4609 21.6523ZM34.4092 29H28.1377V8.92383H34.4092V29ZM27.7666 3.74707C27.7666 2.85645 28.0882 2.12663 28.7314 1.55762C29.3747 0.988607 30.2096 0.704102 31.2363 0.704102C32.263 0.704102 33.098 0.988607 33.7412 1.55762C34.3844 2.12663 34.7061 2.85645 34.7061 3.74707C34.7061 4.6377 34.3844 5.36751 33.7412 5.93652C33.098 6.50553 32.263 6.79004 31.2363 6.79004C30.2096 6.79004 29.3747 6.50553 28.7314 5.93652C28.0882 5.36751 27.7666 4.6377 27.7666 3.74707ZM45.6533 24.1758H54.8008V29H37.749V25.5117L46.6553 13.748H38.1387V8.92383H54.5967V12.3008L45.6533 24.1758ZM64.4307 29H58.1592V8.92383H64.4307V29ZM57.7881 3.74707C57.7881 2.85645 58.1097 2.12663 58.7529 1.55762C59.3962 0.988607 60.2311 0.704102 61.2578 0.704102C62.2845 0.704102 63.1195 0.988607 63.7627 1.55762C64.4059 2.12663 64.7275 2.85645 64.7275 3.74707C64.7275 4.6377 64.4059 5.36751 63.7627 5.93652C63.1195 6.50553 62.2845 6.79004 61.2578 6.79004C60.2311 6.79004 59.3962 6.50553 58.7529 5.93652C58.1097 5.36751 57.7881 4.6377 57.7881 3.74707ZM74.042 8.92383L74.2461 11.2803C75.6315 9.46191 77.5426 8.55273 79.9795 8.55273C82.07 8.55273 83.6286 9.17741 84.6553 10.4268C85.6943 11.6761 86.2324 13.5563 86.2695 16.0674V29H79.998V16.3271C79.998 15.3128 79.7939 14.5706 79.3857 14.1006C78.9775 13.6182 78.2354 13.377 77.1592 13.377C75.9346 13.377 75.0254 13.8594 74.4316 14.8242V29H68.1787V8.92383H74.042ZM95.8623 11.0762C97.1982 9.39388 98.9053 8.55273 100.983 8.55273C103.198 8.55273 104.868 9.20833 105.993 10.5195C107.119 11.8307 107.694 13.7666 107.719 16.3271V29H101.447V16.4756C101.447 15.4118 101.231 14.6325 100.798 14.1377C100.365 13.6305 99.6289 13.377 98.5898 13.377C97.3034 13.377 96.3942 13.7852 95.8623 14.6016V29H89.6094V0.5H95.8623V11.0762ZM110.409 18.7764C110.409 16.7725 110.799 14.9912 111.578 13.4326C112.357 11.8617 113.477 10.6556 114.937 9.81445C116.396 8.97331 118.109 8.55273 120.076 8.55273C123.082 8.55273 125.451 9.48665 127.183 11.3545C128.914 13.21 129.78 15.7396 129.78 18.9434V19.166C129.78 22.2956 128.908 24.7819 127.164 26.625C125.432 28.4557 123.082 29.3711 120.113 29.3711C117.256 29.3711 114.961 28.5176 113.229 26.8105C111.498 25.0911 110.564 22.7656 110.428 19.834L110.409 18.7764ZM116.662 19.166C116.662 21.0215 116.953 22.3822 117.534 23.248C118.116 24.1139 118.975 24.5469 120.113 24.5469C122.34 24.5469 123.478 22.8337 123.527 19.4072V18.7764C123.527 15.1768 122.377 13.377 120.076 13.377C117.986 13.377 116.854 14.9294 116.681 18.0342L116.662 19.166ZM156.221 21.8193C156.221 20.8669 155.881 20.1247 155.2 19.5928C154.532 19.0609 153.351 18.5104 151.656 17.9414C149.962 17.3724 148.576 16.8219 147.5 16.29C143.999 14.5706 142.249 12.208 142.249 9.20215C142.249 7.7054 142.682 6.38802 143.548 5.25C144.426 4.09961 145.663 3.20898 147.259 2.57812C148.854 1.9349 150.648 1.61328 152.64 1.61328C154.582 1.61328 156.32 1.95964 157.854 2.65234C159.4 3.34505 160.6 4.33464 161.453 5.62109C162.307 6.89518 162.733 8.35482 162.733 10H156.239C156.239 8.89909 155.899 8.04557 155.219 7.43945C154.551 6.83333 153.642 6.53027 152.491 6.53027C151.328 6.53027 150.407 6.79004 149.727 7.30957C149.059 7.81673 148.725 8.46615 148.725 9.25781C148.725 9.95052 149.096 10.5814 149.838 11.1504C150.58 11.707 151.885 12.2884 153.753 12.8945C155.621 13.4883 157.155 14.1315 158.354 14.8242C161.274 16.5065 162.733 18.8258 162.733 21.7822C162.733 24.1449 161.843 26.0003 160.062 27.3486C158.28 28.6969 155.837 29.3711 152.732 29.3711C150.543 29.3711 148.558 28.9814 146.776 28.2021C145.007 27.4105 143.672 26.3343 142.769 24.9736C141.878 23.6006 141.433 22.0234 141.433 20.2422H147.964C147.964 21.6895 148.335 22.7594 149.077 23.4521C149.832 24.1325 151.05 24.4727 152.732 24.4727C153.809 24.4727 154.656 24.2438 155.274 23.7861C155.905 23.3161 156.221 22.6605 156.221 21.8193ZM164.997 18.7764C164.997 16.7725 165.387 14.9912 166.166 13.4326C166.945 11.8617 168.065 10.6556 169.524 9.81445C170.984 8.97331 172.697 8.55273 174.664 8.55273C177.67 8.55273 180.039 9.48665 181.771 11.3545C183.502 13.21 184.368 15.7396 184.368 18.9434V19.166C184.368 22.2956 183.496 24.7819 181.752 26.625C180.02 28.4557 177.67 29.3711 174.701 29.3711C171.844 29.3711 169.549 28.5176 167.817 26.8105C166.086 25.0911 165.152 22.7656 165.016 19.834L164.997 18.7764ZM171.25 19.166C171.25 21.0215 171.541 22.3822 172.122 23.248C172.703 24.1139 173.563 24.5469 174.701 24.5469C176.928 24.5469 178.066 22.8337 178.115 19.4072V18.7764C178.115 15.1768 176.965 13.377 174.664 13.377C172.574 13.377 171.442 14.9294 171.269 18.0342L171.25 19.166ZM193.72 29H187.448V0.5H193.72V29ZM204.185 29H197.913V8.92383H204.185V29ZM197.542 3.74707C197.542 2.85645 197.864 2.12663 198.507 1.55762C199.15 0.988607 199.985 0.704102 201.012 0.704102C202.038 0.704102 202.873 0.988607 203.517 1.55762C204.16 2.12663 204.481 2.85645 204.481 3.74707C204.481 4.6377 204.16 5.36751 203.517 5.93652C202.873 6.50553 202.038 6.79004 201.012 6.79004C199.985 6.79004 199.15 6.50553 198.507 5.93652C197.864 5.36751 197.542 4.6377 197.542 3.74707ZM207.265 18.8135C207.265 15.6344 207.951 13.1296 209.324 11.2988C210.697 9.4681 212.615 8.55273 215.076 8.55273C216.87 8.55273 218.379 9.25781 219.604 10.668V0.5H225.875V29H220.253L219.938 26.8477C218.651 28.5299 217.018 29.3711 215.039 29.3711C212.652 29.3711 210.759 28.4557 209.361 26.625C207.964 24.7943 207.265 22.1904 207.265 18.8135ZM213.518 19.2031C213.518 22.7656 214.557 24.5469 216.635 24.5469C218.02 24.5469 219.01 23.9655 219.604 22.8027V15.1582C219.035 13.9707 218.057 13.377 216.672 13.377C214.742 13.377 213.697 14.9355 213.536 18.0527L213.518 19.2031ZM240.737 29C240.515 28.5918 240.317 27.9919 240.144 27.2002C238.993 28.6475 237.385 29.3711 235.319 29.3711C233.427 29.3711 231.819 28.8021 230.495 27.6641C229.172 26.5137 228.51 25.0726 228.51 23.3408C228.51 21.1637 229.314 19.5186 230.922 18.4053C232.53 17.292 234.868 16.7354 237.936 16.7354H239.865V15.6777C239.865 13.8346 239.067 12.9131 237.472 12.9131C235.987 12.9131 235.245 13.6429 235.245 15.1025H228.992C228.992 13.1605 229.815 11.5833 231.46 10.3711C233.118 9.15885 235.227 8.55273 237.787 8.55273C240.348 8.55273 242.37 9.17741 243.854 10.4268C245.339 11.6761 246.1 13.3893 246.137 15.5664V24.4541C246.161 26.2972 246.446 27.7074 246.99 28.6846V29H240.737ZM236.822 24.918C237.602 24.918 238.245 24.751 238.752 24.417C239.271 24.083 239.643 23.7057 239.865 23.2852V20.0752H238.047C235.87 20.0752 234.781 21.0524 234.781 23.0068C234.781 23.5758 234.973 24.0397 235.356 24.3984C235.74 24.7448 236.229 24.918 236.822 24.918ZM238.381 0.5H244.986L239.828 6.32617H234.726L238.381 0.5ZM261.76 14.583L259.7 14.4346C257.733 14.4346 256.472 15.0531 255.915 16.29V29H249.662V8.92383H255.525L255.729 11.5029C256.781 9.53613 258.247 8.55273 260.127 8.55273C260.795 8.55273 261.376 8.62695 261.871 8.77539L261.76 14.583ZM270.61 29H264.339V8.92383H270.61V29ZM263.968 3.74707C263.968 2.85645 264.289 2.12663 264.933 1.55762C265.576 0.988607 266.411 0.704102 267.438 0.704102C268.464 0.704102 269.299 0.988607 269.942 1.55762C270.586 2.12663 270.907 2.85645 270.907 3.74707C270.907 4.6377 270.586 5.36751 269.942 5.93652C269.299 6.50553 268.464 6.79004 267.438 6.79004C266.411 6.79004 265.576 6.50553 264.933 5.93652C264.289 5.36751 263.968 4.6377 263.968 3.74707ZM273.69 18.7764C273.69 16.7725 274.08 14.9912 274.859 13.4326C275.639 11.8617 276.758 10.6556 278.218 9.81445C279.677 8.97331 281.391 8.55273 283.357 8.55273C286.363 8.55273 288.732 9.48665 290.464 11.3545C292.196 13.21 293.062 15.7396 293.062 18.9434V19.166C293.062 22.2956 292.189 24.7819 290.445 26.625C288.714 28.4557 286.363 29.3711 283.395 29.3711C280.537 29.3711 278.243 28.5176 276.511 26.8105C274.779 25.0911 273.845 22.7656 273.709 19.834L273.69 18.7764ZM279.943 19.166C279.943 21.0215 280.234 22.3822 280.815 23.248C281.397 24.1139 282.257 24.5469 283.395 24.5469C285.621 24.5469 286.759 22.8337 286.809 19.4072V18.7764C286.809 15.1768 285.658 13.377 283.357 13.377C281.267 13.377 280.135 14.9294 279.962 18.0342L279.943 19.166Z" fill="#137F88"/>
</svg>
