<svg width="381" height="81" viewBox="0 0 381 81" fill="none" xmlns="http://www.w3.org/2000/svg">
<path d="M68.9724 73.7194V34.5253C68.9724 30.5397 71.6223 27.6385 75.2534 27.6385H81.1279C84.7591 27.6385 87.3948 30.5256 87.3948 34.5253V73.7194C87.3948 77.7049 84.7591 80.6061 81.1279 80.6061H75.2534C71.6223 80.6061 68.9724 77.7189 68.9724 73.7194Z" fill="#660099"/>
<path d="M88.6788 10.4071C88.6788 16.1593 84.0488 20.8143 78.3277 20.8143C72.6066 20.8143 67.9766 16.1593 67.9766 10.4071C67.9766 4.65508 72.6066 0 78.3277 0C84.0488 0 88.6788 4.65508 88.6788 10.4071Z" fill="#660099"/>
<path d="M159.355 54.0829C159.355 39.2386 171.614 27.1661 186.701 27.1661C201.773 27.1661 214.046 39.2386 214.046 54.0829C214.046 68.9273 201.773 80.9998 186.701 80.9998C171.627 80.9998 159.355 68.9273 159.355 54.0829ZM175.998 54.0829C175.998 60.0066 180.79 64.8328 186.701 64.8328C192.599 64.8328 197.403 60.0066 197.403 54.0829C197.403 48.1452 192.599 43.319 186.701 43.319C180.79 43.319 175.998 48.1452 175.998 54.0829Z" fill="#660099"/>
<path d="M125.862 79.5562C122.487 79.5562 119.154 78.937 117.515 75.9249C115.877 72.9269 97.4609 40.4703 96.0184 37.9087C94.702 35.5722 95.1781 31.5186 98.4132 29.9C100.388 28.9148 101.368 28.4081 103.091 27.5355C106.144 26.0013 109.953 26.325 112.348 30.5194C113.79 33.0246 125.778 57.1208 125.778 57.1208H125.89C125.89 57.1208 137.893 33.0387 139.334 30.5194C141.729 26.325 145.553 26.0013 148.606 27.5355C150.343 28.4081 151.308 28.9148 153.284 29.9C156.519 31.5045 157.008 35.5722 155.678 37.9087C153.913 41.0333 135.904 72.9552 134.181 75.9249C132.444 78.8947 129.209 79.5562 125.862 79.5562Z" fill="#660099"/>
<path d="M30.5234 79.5562C27.1471 79.5562 23.8129 78.937 22.1879 75.9249C20.5487 72.9269 2.12639 40.4703 0.683416 37.9087C-0.633466 35.5722 -0.157147 31.5186 3.07902 29.9C5.04034 28.9148 6.021 28.4081 7.75815 27.5355C10.7982 26.0153 14.6227 26.3391 17.0184 30.5194C18.4614 33.0246 30.4394 57.1208 30.4394 57.1208H30.5654C30.5654 57.1208 42.5715 33.0387 44.0004 30.5194C46.396 26.325 50.2206 26.0013 53.2606 27.5355C54.9978 28.4081 55.9785 28.9289 57.9398 29.9C61.19 31.5045 61.6663 35.5722 60.3495 37.9087C58.5702 41.0333 40.5681 72.9552 38.8309 75.9249C37.1078 78.8947 33.8717 79.5562 30.5095 79.5562H30.5234Z" fill="#660099"/>
<path fill-rule="evenodd" clip-rule="evenodd" d="M275.864 16.2001C282.398 16.2001 288.329 18.7907 292.689 23.0031C294.171 24.6564 296.322 25.6964 298.715 25.6964C303.187 25.6964 306.813 22.0652 306.813 17.5859C306.813 15.1801 305.767 13.019 304.106 11.5337C296.821 4.39797 286.855 6.10352e-05 275.864 6.10352e-05C253.547 6.10352e-05 235.455 18.1325 235.455 40.5C235.455 62.8676 253.547 81 275.864 81C289.09 81 300.832 74.6312 308.204 64.7865C315.58 74.6312 327.33 81 340.565 81C362.897 81 381 62.8676 381 40.5C381 18.1325 362.897 6.10352e-05 340.565 6.10352e-05C329.41 6.10352e-05 319.31 4.52449 311.994 11.8412L312.005 11.8522C310.546 13.3198 309.643 15.3469 309.643 17.5859C309.643 22.0652 313.256 25.6964 317.714 25.6964C320.066 25.6964 322.183 24.6852 323.659 23.0719C328.028 18.8189 333.991 16.2001 340.565 16.2001C353.964 16.2001 364.826 27.0795 364.826 40.5C364.826 53.9206 353.964 64.8 340.565 64.8C327.175 64.8 316.318 53.9346 316.304 40.5261H316.273C316.273 40.5174 316.273 40.5087 316.273 40.5C316.273 35.9917 312.654 32.337 308.191 32.337H283.946C279.482 32.337 275.864 35.9917 275.864 40.5C275.864 45.0083 279.482 48.663 283.946 48.663H298.707C295.361 58.0681 286.397 64.8 275.864 64.8C262.474 64.8 251.619 53.9206 251.619 40.5C251.619 27.0795 262.474 16.2001 275.864 16.2001Z" fill="url(#paint0_linear)"/>
<defs>
<linearGradient id="paint0_linear" x1="235.455" y1="40.5" x2="381" y2="40.5" gradientUnits="userSpaceOnUse">
<stop offset="0.309392" stop-color="#660099"/>
<stop offset="1" stop-color="#CD0C8B"/>
</linearGradient>
</defs>
</svg>
