<svg width="125" height="124" viewBox="0 0 125 124" fill="none" xmlns="http://www.w3.org/2000/svg">
<g clip-path="url(#clip0)">
<path d="M124.592 110.269C124.593 112.019 124.247 113.753 123.572 115.37C122.898 116.988 121.909 118.458 120.662 119.696C119.415 120.934 117.934 121.917 116.304 122.587C114.674 123.257 112.927 123.603 111.162 123.603H13.4258C11.6617 123.602 9.91501 123.256 8.28556 122.585C6.65612 121.915 5.17579 120.932 3.92909 119.694C2.68239 118.456 1.69374 116.986 1.01958 115.369C0.34543 113.752 -0.00102398 112.019 2.27326e-06 110.269V13.3242C-0.000515829 9.79124 1.41363 6.40277 3.9314 3.90405C6.44916 1.40534 9.86435 0.00102758 13.4258 0L111.164 0C118.586 0 124.594 5.9675 124.594 13.3242V110.269H124.592Z" fill="#EC1C24"/>
<path d="M39.9318 71.0074C39.9318 73.5475 39.2736 75.8318 37.9493 77.8585C36.6251 79.8948 34.6935 81.4796 32.1427 82.6305C29.5939 83.7736 26.5782 84.351 23.088 84.351C18.8966 84.351 15.4493 83.5663 12.7247 81.9969C10.8144 80.8871 9.20338 79.3348 8.02942 77.4729C6.82434 75.5877 6.21887 73.7548 6.21887 71.9781C6.21887 70.9474 6.58215 70.0619 7.29895 69.3218C8.02942 68.5856 8.94739 68.2213 10.0685 68.2213C10.9708 68.2213 11.7404 68.5081 12.3693 69.0816C12.9923 69.6551 13.5255 70.5018 13.9728 71.6371C14.5157 72.9721 15.0939 74.0939 15.7228 74.9871C16.3497 75.8919 17.2384 76.632 18.3712 77.2113C19.5079 77.8003 21.0079 78.0929 22.8595 78.0929C25.4083 78.0929 27.4708 77.5039 29.0587 76.3278C30.6505 75.1518 31.4552 73.6773 31.4552 71.9161C31.4552 70.5231 31.0236 69.3916 30.1661 68.5178C29.3087 67.6498 28.1935 66.9852 26.8361 66.526C25.4747 66.0629 23.6564 65.5728 21.3829 65.0574C18.3361 64.3502 15.7833 63.5229 13.7286 62.5774C11.67 61.628 10.047 60.3376 8.84192 58.7024C7.63293 57.0671 7.02747 55.0347 7.02747 52.6031C7.02747 50.2878 7.66223 48.2341 8.93958 46.4303C10.2091 44.6342 12.0509 43.2528 14.463 42.284C16.881 41.3191 19.713 40.8328 22.9728 40.8328C25.5782 40.8328 27.8263 41.1564 29.7247 41.7938C31.6271 42.439 33.2072 43.2896 34.463 44.3494C35.7189 45.4111 36.6329 46.531 37.2072 47.6935C37.7931 48.8599 38.0802 50.0011 38.0802 51.1113C38.0802 52.1246 37.7169 53.0352 36.9982 53.8567C36.2658 54.6646 35.3673 55.0754 34.2892 55.0754C33.3087 55.0754 32.5548 54.8293 32.047 54.3391C31.5294 53.8567 30.9825 53.0546 30.381 51.9483C29.6075 50.3537 28.6896 49.1156 27.6036 48.2321C26.5197 47.3409 24.7911 46.8914 22.3947 46.8914C20.1759 46.8914 18.3888 47.3777 17.0294 48.3426C15.6759 49.3113 14.9865 50.4777 14.9865 51.8281C14.9865 52.6787 15.2228 53.3994 15.6818 54.0117C16.1447 54.6259 16.7794 55.1568 17.5919 55.5946C18.3743 56.0228 19.1989 56.3702 20.0529 56.6312C20.8829 56.8734 22.256 57.2357 24.1622 57.7181C26.3568 58.2162 28.5233 58.8293 30.6525 59.5549C32.5978 60.2233 34.2423 61.039 35.6056 61.9961C36.9478 62.9333 38.0404 64.18 38.7892 65.629C39.549 67.0918 39.9318 68.884 39.9318 71.0094" fill="white"/>
<path d="M61.6603 40.8415C66.0529 40.8415 69.8322 41.7269 72.9885 43.4997C76.1408 45.2726 78.5256 47.7855 80.1447 51.0463C81.7639 54.3129 82.5783 58.1434 82.5783 62.5415C82.5783 65.8004 82.133 68.757 81.2502 71.4133C80.3576 74.0716 79.0295 76.3791 77.2502 78.3341C75.4787 80.2909 73.299 81.7731 70.7131 82.8077C68.1271 83.8424 65.1642 84.3597 61.8303 84.3597C58.5119 84.3597 55.5353 83.8288 52.9142 82.7709C50.2892 81.7072 48.0998 80.2076 46.3517 78.272C44.5959 76.3442 43.2678 74.0212 42.3713 71.2971C41.4787 68.5846 41.0236 65.6492 41.0236 62.4892C41.0236 59.2594 41.4943 56.2853 42.4279 53.5864C43.3654 50.8874 44.717 48.5934 46.4924 46.7005C48.26 44.8017 50.4377 43.3544 52.9748 42.3489C55.5217 41.3414 58.4162 40.8415 61.6603 40.8415ZM73.8732 62.4872C73.8732 59.4008 73.3713 56.7367 72.3654 54.4737C71.3576 52.2185 69.9318 50.5116 68.0646 49.3529C66.2053 48.1943 64.0724 47.6169 61.6623 47.6169C59.9435 47.6169 58.3557 47.9405 56.8986 48.5779C55.4488 49.2165 54.1639 50.1731 53.1408 51.3757C52.0881 52.5982 51.258 54.1657 50.6506 56.0722C50.0412 57.9729 49.7404 60.1138 49.7404 62.4872C49.7404 64.8742 50.0432 67.0442 50.6506 68.9682C51.2599 70.8999 52.1154 72.5061 53.2248 73.7809C54.2694 75.0024 55.576 75.9768 57.049 76.6329C58.4885 77.2704 60.0607 77.5823 61.7756 77.5823C63.9105 77.6015 66.0093 77.0349 67.84 75.9451C69.6838 74.8562 71.1506 73.1726 72.2385 70.8921C73.3224 68.6194 73.8732 65.8178 73.8732 62.4872Z" fill="white"/>
<path d="M117.93 71.0074C117.93 73.5475 117.268 75.8318 115.945 77.8585C114.625 79.8948 112.694 81.4796 110.145 82.6305C107.598 83.7736 104.578 84.351 101.088 84.351C96.8967 84.351 93.4514 83.5663 90.7326 81.9969C88.8184 80.888 87.2034 79.3358 86.0256 77.4729C84.8244 75.5877 84.2189 73.7548 84.2189 71.9781C84.2189 70.9474 84.5803 70.0619 85.299 69.3218C86.0256 68.5856 86.9494 68.2213 88.0646 68.2213C88.9728 68.2213 89.7404 68.5081 90.3693 69.0816C90.9924 69.6551 91.5295 70.5018 91.9728 71.6371C92.508 72.9721 93.0978 74.0939 93.7189 74.9871C94.3498 75.8919 95.2267 76.632 96.3693 77.2113C97.506 77.8003 99.0002 78.0929 100.86 78.0929C103.408 78.0929 105.471 77.5039 107.059 76.3278C108.651 75.1518 109.451 73.6773 109.451 71.9161C109.451 70.5231 109.024 69.3916 108.162 68.5178C107.307 67.6498 106.19 66.9852 104.842 66.526C103.475 66.0629 101.66 65.5728 99.3849 65.0574C96.3361 64.3502 93.7853 63.5229 91.7267 62.5774C89.6701 61.628 88.0471 60.3376 86.8381 58.7024C85.6291 57.0671 85.0275 55.0347 85.0275 52.6031C85.0275 50.2878 85.6623 48.2341 86.9416 46.4303C88.2072 44.6342 90.049 43.2528 92.467 42.284C94.8732 41.3191 97.715 40.8328 100.971 40.8328C103.582 40.8328 105.826 41.1564 107.735 41.7938C109.633 42.439 111.207 43.2896 112.465 44.3494C113.713 45.4111 114.629 46.531 115.203 47.6935C115.793 48.8599 116.076 50.0011 116.076 51.1113C116.076 52.1246 115.715 53.0352 114.996 53.8567C114.663 54.2451 114.247 54.5557 113.778 54.7663C113.309 54.977 112.8 55.0825 112.285 55.0754C111.307 55.0754 110.551 54.8293 110.043 54.3391C109.528 53.8567 108.977 53.0546 108.383 51.9483C107.606 50.3537 106.692 49.1156 105.596 48.2321C104.516 47.3409 102.783 46.8914 100.391 46.8914C98.1701 46.8914 96.3791 47.3777 95.0178 48.3426C93.6682 49.3113 92.9865 50.4777 92.9865 51.8281C92.9865 52.6787 93.2111 53.3994 93.6818 54.0117C94.1408 54.6259 94.7775 55.1568 95.5842 55.5946C96.3684 56.0219 97.1942 56.3692 98.049 56.6312C98.8771 56.8734 100.254 57.2357 102.153 57.7181C104.35 58.2162 106.519 58.8293 108.651 59.5549C110.586 60.2233 112.24 61.039 113.602 61.9961C114.944 62.9313 116.035 64.1786 116.779 65.629C117.549 67.0918 117.93 68.884 117.93 71.0094" fill="white"/>
</g>
<defs>
<clipPath id="clip0">
<rect width="125" height="124" fill="white"/>
</clipPath>
</defs>
</svg>
