<svg width="291" height="240" viewBox="0 0 291 240" fill="none" xmlns="http://www.w3.org/2000/svg">
<rect x="26" y="0.00012207" width="240" height="240" rx="120" fill="#FBC2BA"/>
<rect x="36" y="10" width="220" height="220" rx="110" fill="#FC806F"/>
<rect x="46" y="20" width="200" height="200" rx="100" fill="#E72012"/>
<path d="M119.084 126.674C119.084 125.29 118.596 124.232 117.619 123.5C116.643 122.751 114.885 121.97 112.346 121.156C109.807 120.326 107.797 119.512 106.315 118.715C102.279 116.534 100.261 113.596 100.261 109.901C100.261 107.981 100.798 106.272 101.872 104.774C102.963 103.261 104.517 102.081 106.535 101.234C108.57 100.388 110.848 99.9648 113.371 99.9648C115.91 99.9648 118.173 100.429 120.158 101.356C122.144 102.268 123.682 103.562 124.772 105.238C125.879 106.915 126.433 108.819 126.433 110.951H119.108C119.108 109.324 118.596 108.062 117.57 107.167C116.545 106.256 115.104 105.8 113.249 105.8C111.459 105.8 110.067 106.182 109.074 106.947C108.081 107.696 107.585 108.689 107.585 109.926C107.585 111.081 108.163 112.05 109.318 112.831C110.49 113.612 112.207 114.345 114.47 115.028C118.636 116.282 121.672 117.836 123.576 119.691C125.48 121.547 126.433 123.858 126.433 126.625C126.433 129.701 125.269 132.118 122.941 133.876C120.614 135.618 117.481 136.488 113.542 136.488C110.808 136.488 108.317 135.992 106.071 134.999C103.825 133.99 102.108 132.615 100.92 130.873C99.748 129.132 99.1621 127.113 99.1621 124.818H106.511C106.511 128.741 108.854 130.702 113.542 130.702C115.284 130.702 116.643 130.352 117.619 129.652C118.596 128.936 119.084 127.943 119.084 126.674ZM160.612 119.032C160.612 122.532 159.994 125.6 158.757 128.236C157.52 130.873 155.746 132.908 153.435 134.34C151.14 135.772 148.503 136.488 145.524 136.488C142.578 136.488 139.95 135.78 137.639 134.364C135.327 132.948 133.537 130.93 132.268 128.31C130.998 125.673 130.355 122.646 130.339 119.228V117.47C130.339 113.97 130.965 110.894 132.219 108.241C133.488 105.572 135.271 103.529 137.565 102.113C139.877 100.681 142.513 99.9648 145.476 99.9648C148.438 99.9648 151.066 100.681 153.361 102.113C155.673 103.529 157.455 105.572 158.708 108.241C159.978 110.894 160.612 113.962 160.612 117.445V119.032ZM153.19 117.421C153.19 113.694 152.523 110.862 151.188 108.925C149.854 106.988 147.95 106.02 145.476 106.02C143.018 106.02 141.122 106.98 139.787 108.9C138.452 110.805 137.777 113.604 137.761 117.299V119.032C137.761 122.662 138.428 125.478 139.763 127.479C141.097 129.481 143.018 130.482 145.524 130.482C147.982 130.482 149.87 129.522 151.188 127.602C152.507 125.665 153.174 122.849 153.19 119.154V117.421ZM184.367 126.674C184.367 125.29 183.879 124.232 182.902 123.5C181.926 122.751 180.168 121.97 177.629 121.156C175.09 120.326 173.08 119.512 171.599 118.715C167.562 116.534 165.544 113.596 165.544 109.901C165.544 107.981 166.081 106.272 167.155 104.774C168.246 103.261 169.8 102.081 171.818 101.234C173.853 100.388 176.132 99.9648 178.654 99.9648C181.193 99.9648 183.456 100.429 185.441 101.356C187.427 102.268 188.965 103.562 190.056 105.238C191.162 106.915 191.716 108.819 191.716 110.951H184.392C184.392 109.324 183.879 108.062 182.854 107.167C181.828 106.256 180.388 105.8 178.532 105.8C176.742 105.8 175.35 106.182 174.357 106.947C173.365 107.696 172.868 108.689 172.868 109.926C172.868 111.081 173.446 112.05 174.602 112.831C175.773 113.612 177.491 114.345 179.753 115.028C183.92 116.282 186.955 117.836 188.859 119.691C190.764 121.547 191.716 123.858 191.716 126.625C191.716 129.701 190.552 132.118 188.225 133.876C185.897 135.618 182.764 136.488 178.825 136.488C176.091 136.488 173.601 135.992 171.354 134.999C169.108 133.99 167.391 132.615 166.203 130.873C165.031 129.132 164.445 127.113 164.445 124.818H171.794C171.794 128.741 174.138 130.702 178.825 130.702C180.567 130.702 181.926 130.352 182.902 129.652C183.879 128.936 184.367 127.943 184.367 126.674Z" fill="#EFF4F9"/>
</svg>
